<mxfile host="Electron" agent="Mozilla/5.0 (Windows NT 10.0; Win64; x64) AppleWebKit/537.36 (KHTML, like Gecko) draw.io/27.0.9 Chrome/134.0.6998.205 Electron/35.4.0 Safari/537.36" version="27.0.9">
  <diagram name="Page-1" id="z--LGWUKWoRFS_PovjMt">
    <mxGraphModel dx="865" dy="786" grid="1" gridSize="10" guides="1" tooltips="1" connect="1" arrows="1" fold="1" page="1" pageScale="1" pageWidth="827" pageHeight="1169" math="0" shadow="0">
      <root>
        <mxCell id="0" />
        <mxCell id="1" parent="0" />
        <mxCell id="x63G3lyGw4gM9EOe4Rga-2" value="" style="shape=image;verticalLabelPosition=bottom;labelBackgroundColor=default;verticalAlign=top;aspect=fixed;imageAspect=0;image=data:image/png,iVBORw0KGgoAAAANSUhEUgAAAGAAAABgCAYAAADimHc4AAAAAXNSR0IArs4c6QAABftJREFUeF7tnAtunDAQhvEeZCE3SU/S9CRNT5L0JG1PUshBlnZWpkIIPP/M+MFWE6lSlWBs/9+8bAyh85+mCoSmvXvnnQNobAQOwAE0VqBx9+4BDqCxAo27dw9wAMcKDMMwdF13/3e73fp45RBC+Pf7ruvG+Ptxnuf7/y+Xy6/ld+M4/myscbL703kAiX673T6HEJ67rqN/1p87lHme3wnM2YCcAsBK9Jdo8VbRU+3JU04DoymA6/X6NYRQQ/QjIHcYHx8f30oST927CYBhGJ7neX6rYO2ormMI4UuL8FQVAIWaKHyO2I6KK7muOogqAFYx/lWiRqtrY474No7jUmEVG0pxADHc/Cg2g3I3Jm8gCO/luujK7oYOw/ASQ45lDvdEudxgU+OPca1Af17WBl1cM9B6gUId/V77UzxJF/OA6/X6FisczeSXUvG7NQzkWFfM8/xaqlLKDsCQaItbW/QWqsC+KjyDQtInq0FsrTErgCg+xXuJ2xcXfjtpQ1GQHUI2ABrxS7o2EveUILJCyAag73uyfLS+/zlN0ydEpBrXKIxnnKbpKcfYsgB4ZPEXEaXeELcwvlghmAHE/RxogdU65CBi1Z6PCYBkkRUriFPvza+8AV2/mLcu1ABi3PyNWNUjib8OSfM8I/MzJWU1AHSh9YjiSz3Bkg9UANDQ8wgxn/NgNCdoDU0FAKx6TlVqckKn/g5CUM1XDAC0ftVgLCKVbItur2i8QAwAsf4QwlPuPZOSAiP3BosO8QJNBADZXv4f4v4RECQUxUeb8DMEEYC+76ksS260TdMkuidifQlB6LnyWGqreG8TDyhNRV4Ai4XE/prWvy6Da/aLRAFJLoABIHV/LevfG0stCMjGnWQsMAAu/Ehjnzb0pAxBMnFt//dnn/yjVjgMSQDMqUHXqHwQL6wBAamI0DAEAeCIW5biqCUi4i/3qgGBK8fRMUAAuM5Khx+J+LUgACUptBhFATQLPxrxa0AAwhCUB1gASPlZqvqxiF8DAhAZ6BRF8hkIAiD5cKJU/M8hfmkIAAA68JtcFbMAuFiHJhs02dJ1OcUvCSGHNgiA5Am33Am4hPilIADVIXui7lQASopfAgKQH9lKiAUAxDk20SDhp4b4uSHUApDcAc2xAq4pfk4IOUpRxAOSawBrCSoUn0o67vQdcs2dg7WAeHgAUvHpOGPf9+yiUPIalBUCNx7OQBEPKBKCNOKT1SITRp/hWsNRLQ9IHrrV5ACt+CiAuGUseiFQ4wlnASCqgiziSwDUgFCrCuI8QAqAXs5GDvPu1tBICFqXvZJTz9JFJbAQo5fAkyeo2RzAWazGdbkl/N9K53ABIwWweEL8/sQheKn4ccskaUzIPhkCgLNYdrW3txBLQEjeTwOAg6ARH9mzQu7LAsiRaI5WwjsQWJhaAEcQEJGOxg88J2cPqOUA0KHPPxlPYMWXJuG9/tY5wSJ+jrHQPVgAsaNkItbkgU2ifOH2zZfrLR6w3GP5EBT3sCS1h5UjAcMAgKQJPX5DNuW4a3IA4PpA/s6FHyQBwwCAetcUhpAJ5/QASX8HYYxe9k5+/wINy1AIAk+DsTWvdeK54q51HFxpTvfn9oCWMUAAkJqXDsmWeJV/K9YZQhA3BjT8wCFoKeG4k8GSjrVWyE0etTxt/4j1S/bHYA9AqqEaXtAaANd/ahW/B10EgCu9IoCi317jBCjpAUgulK4tpABoi/foayjml5aRsNASwCoUH2og/YaECEAcwN5BrSrin6UKOvIEtPRcG5oYwE4uqCb+WQAceAK0lbL1chWA1cKsqvhnArCFoLF+URm6JUfl2OVyoW+6Vf0AR+scsNVh2dzTviio8gAkWZa65mwArPN0AFYFje0dgFFAa3MHYFXQ2N4BGAW0NncAVgWN7R2AUUBrcwdgVdDY3gEYBbQ2dwBWBY3tHYBRQGtzB2BV0NjeARgFtDZ3AFYFje0dgFFAa3MHYFXQ2N4BGAW0NncAVgWN7R8OgHG+p2vuABojcQAOoLECjbt3D3AAjRVo3L17gANorEDj7v8ApI0qrL3qzQYAAAAASUVORK5CYII=;rotation=90;" vertex="1" parent="1">
          <mxGeometry x="160" y="220" width="96" height="96" as="geometry" />
        </mxCell>
        <mxCell id="x63G3lyGw4gM9EOe4Rga-3" value="" style="shape=image;verticalLabelPosition=bottom;labelBackgroundColor=default;verticalAlign=top;aspect=fixed;imageAspect=0;image=data:image/png,iVBORw0KGgoAAAANSUhEUgAAAGAAAABgCAYAAADimHc4AAAAAXNSR0IArs4c6QAABd5JREFUeF7tnAtu1DAQhuMcZJPepD0J7UlaTgKchHISkh5kDRMcFC0bzz9+jpErIaHdbBz/3zztJGbof1UVMFVH74MPHUBlI+gAOoDKClQevntAB1BZgcrDdw/oAM4VmOd5HoZh+3e9Xid35GyM+fv5MAyL+3yx1m7/H8fxx/7ZsizvlTX2Dq/OA0j06/X6yRjzOAwD/Yv926BYa78SGG1AVAA4iP7sLD5WdN/vyVPUwKgK4HK5vBpjSoh+BmSD8fHx8Tkncd+5qwCY5/nRWvulgLWjui7GmJca4akoAAo1TvgUsR0VV3JccRBFABxi/JtEjVrHuhzxeVmWvcLKdinZAbhw8z3bDPKdmLyBIHzNN8SQdzV0nudnF3Ji5rAlyv0ENzX+4noF+nrvDQbXM1C/QKGOPg/9y56ks3nA5XL54iqckMnvpeK32DCQoq+w1r7lqpSSA4hItNmtzXkLVWCvAZ5BIekp1iBurTEpACc+xXuJ22cX/nbSEUVBcgjJAISIn9O1kbgXCCIphGQApmkiy0fr+/d1XZ8QkUocE2A8y7quDymuLQmAlsXfRZR6g1vCeImFEA3AredADVbtkIOIVXo+UQAkTZarIFSvzR+8Ae1fopcuggG4uPkTsaqWxD+GJGstMr+opBwMAG20WhRf6gkx+SAIABp6Woj5nAejOSHU0IIAgFWPqlKTE9r3PQghaL5iAKD1B11MjEg5f4sur4R4gRgAYv3GmIfUayY5BUbODRYd4gZNBABZXv4f4v4ZECQUua1NeA9BBGCaJirLvAtt67qKzolY3/GYaZqs7zc5x8/hBbBYSOwvYf01AWy7PsAmkyQXwACQuj+n9e1WrwAA3VjgXXKXGCIMgAs/0tgnDT1aAIBeACdjCQBv7C1V+dT2AAeAvMC7TIGGIQgAF/diWnGpJ2gAQNfMleNoGIIAcIOVCj9u4tWqoKOxACUp1IyiAFSEH00AgJIUygMsAKT8LFH9aErCh2vxbsMieQAB4N2cKBn/NXkAkgeQ0MwC4GIdmmykyfbseC1JmK4vhTYIAO8dbgjlVOJr8wCgOmTvqOsAIqwDyI9sJcQCAEpQul2v2Ga7phBUCoB3BbRUB6yxCkpRiiIeoKLx6QBOYmXJHkBbEk5xPYgH9BB0YnylQhDX7RXd/1WWhLlVUXY5AvEADkCvgs5L2V6GRpT57E+BRoweAvfeQc16ALcV2ZcizOmd4cg6GQKAXifgu/2cdTPWlAQHaMoBnHEiyzQsgBSZXqAve6gmAMA+OVugpAAwIOverLLgAcoARDepLABk3btkHtACIEUCJm0hANy6N721KtVDa5wjaAHAhR8kAcMAgFW/YmFIA4CUekAegDzGiRLnLJz7XgMArvqhOaBrZBAAZPuNwlCOR/lvgWgAwF2DxBhhAEA5ur0Yj+v87lk4JTT0tTDc5FHLk4x5vGbE+iV7JDAApBoK8YJ9Qii8FAD2Xb6Q6o0b//fbAkSNqQgAV3o5APC7126tCYHACcB5wO0WqwQCkguR7vfoUVIAvluzRQ8tn7kyByEGwNn+dkII4nJcBIDInXhBEvF3y/BBCAXA3VyQAkLIioAYwJ1ckFT8g3vejaUhADjxD+DZ+3j2Y++EI1Hs388TBODQiIjEB8vZY4j8x6WlAFDxt670z7tD4QfsjhBCrB/uhO+VjhTDx3Gkd7qJ7wkCljZOIUgA5BT/6An0ruvQd8oFeQDXrSLfh0JAAZQQH5knd0w1AKHhCAHQivhRIYgji34v9QTuOWVqhNBXp0ljPjonyXFVPWC/UCEEyfxOj9UgvgoPqAFBi/iqAATkhCBP0CS+OgC5IWgTXyWAXBA0iq8WQGoIWsVXDSAVBM3iqwcQC0G7+E0ACIXQgvjNAJBCaEX8pgCgEFoSvzkAHITWxG8SwBmEFsVvFsAthFbFbxrADmEcx1WyjRi0gJTxRyqWozPOT/2pO4DKiDqADqCyApWH7x7QAVRWoPLw3QM6gMoKVB7+FxD29J1wx1lcAAAAAElFTkSuQmCC;rotation=-90;" vertex="1" parent="1">
          <mxGeometry x="470" y="220" width="96" height="96" as="geometry" />
        </mxCell>
      </root>
    </mxGraphModel>
  </diagram>
</mxfile>
